<?xml version="1.0" encoding="UTF-8"?>
<svg xmlns="http://www.w3.org/2000/svg" width="1280" height="800" viewBox="0 0 1280 800" font-family="ui-sans-serif, -apple-system, 'Segoe UI', Roboto, 'Helvetica Neue', Inter, sans-serif">
  <defs>
    <style>
      .bg        { fill: #0e1117; }
      .sidebar   { fill: #0a0d12; }
      .panel     { fill: #161b22; stroke: #21262d; stroke-width: 1; }
      .panel-deep{ fill: #0d1117; stroke: #21262d; stroke-width: 1; }
      .divider   { stroke: #21262d; stroke-width: 1; }
      .hairline  { stroke: #1a1f27; stroke-width: 1; }

      .h1        { fill: #f0f6fc; font-weight: 600; font-size: 22px; }
      .h2        { fill: #e6edf3; font-weight: 600; font-size: 13.5px; }
      .h-num     { fill: #f0f6fc; font-weight: 600; font-family: ui-monospace, 'SF Mono', Menlo, monospace; }
      .val       { fill: #e6edf3; font-size: 13px; }
      .val-mono  { fill: #c9d1d9; font-size: 12px; font-family: ui-monospace, 'SF Mono', Menlo, monospace; }
      .lbl       { fill: #6e7681; font-size: 10.5px; font-weight: 600; letter-spacing: 0.07em; text-transform: uppercase; }
      .muted     { fill: #7d8590; font-size: 12px; }
      .muted-mono{ fill: #7d8590; font-size: 11.5px; font-family: ui-monospace, 'SF Mono', Menlo, monospace; }
      .link      { fill: #58a6ff; font-size: 12px; }

      .pill-high { fill: #2a0e10; stroke: #6e1f24; }
      .pill-high-t{ fill: #f85149; font-size: 9.5px; font-weight: 700; letter-spacing: 0.05em; }
      .pill-green{ fill: #0d2014; stroke: #1f4a2a; }
      .pill-green-t{ fill: #3fb950; font-size: 9.5px; font-weight: 700; letter-spacing: 0.05em; }
      .pill-blue { fill: #0f1f33; stroke: #1f3a5a; }
      .pill-blue-t{ fill: #79c0ff; font-size: 9.5px; font-weight: 600; font-family: ui-monospace, monospace; }
      .pill-purple{ fill: #1c0f2a; stroke: #3a2256; }
      .pill-purple-t{ fill: #d2a8ff; font-size: 9.5px; font-weight: 600; }
      .pill-ghost{ fill: #1c2128; stroke: #30363d; }
      .pill-ghost-t{ fill: #c9d1d9; font-size: 10.5px; }
      .pill-yellow{ fill: #261b07; stroke: #5c4416; }
      .pill-yellow-t{ fill: #d29922; font-size: 9.5px; font-weight: 700; letter-spacing: 0.05em; }

      .btn-primary { fill: #1f6feb; stroke: #388bfd; }
      .btn-primary-t{ fill: #ffffff; font-size: 12.5px; font-weight: 600; }
      .btn-danger { fill: #1f1416; stroke: #5c2024; }
      .btn-danger-t{ fill: #ff7b72; font-size: 12.5px; font-weight: 600; }
      .btn-ghost  { fill: #1c2128; stroke: #30363d; }
      .btn-ghost-t{ fill: #c9d1d9; font-size: 12px; }
    </style>
    <linearGradient id="progress" x1="0" x2="1" y1="0" y2="0">
      <stop offset="0%" stop-color="#1f6feb"/>
      <stop offset="60%" stop-color="#388bfd"/>
      <stop offset="100%" stop-color="#58a6ff"/>
    </linearGradient>
    <linearGradient id="herofade" x1="0" x2="0" y1="0" y2="1">
      <stop offset="0%" stop-color="#161b22"/>
      <stop offset="100%" stop-color="#11151c"/>
    </linearGradient>
    <linearGradient id="shimmer" x1="0" x2="1" y1="0" y2="0">
      <stop offset="0%" stop-color="#58a6ff" stop-opacity="0"/>
      <stop offset="50%" stop-color="#ffffff" stop-opacity="0.4"/>
      <stop offset="100%" stop-color="#58a6ff" stop-opacity="0"/>
    </linearGradient>
    <linearGradient id="pulse" x1="0" x2="0" y1="0" y2="1">
      <stop offset="0%" stop-color="#1f6feb" stop-opacity="0.20"/>
      <stop offset="100%" stop-color="#1f6feb" stop-opacity="0"/>
    </linearGradient>
  </defs>

  <rect class="bg" width="1280" height="800"/>

  <!-- ============ Top Bar ============ -->
  <rect x="0" y="0" width="1280" height="52" fill="#0a0d12"/>
  <line class="divider" x1="0" y1="52" x2="1280" y2="52"/>

  <g transform="translate(20,14)">
    <rect width="24" height="24" rx="6" fill="#1f6feb"/>
    <path d="M7 12 L11 16 L17 8" stroke="#ffffff" stroke-width="2.2" fill="none" stroke-linecap="round" stroke-linejoin="round"/>
  </g>
  <text class="h1" x="54" y="33" font-size="15">RotHunter</text>

  <rect x="148" y="12" width="218" height="28" rx="6" fill="#161b22" stroke="#30363d"/>
  <circle cx="164" cy="26" r="6" fill="#a371f7"/>
  <text class="val" x="178" y="30" font-size="12.5">outline / outline</text>
  <text class="muted-mono" x="284" y="30">/workspace</text>
  <path d="M352 24 l5 5 l5 -5" stroke="#7d8590" stroke-width="1.4" fill="none"/>

  <rect x="378" y="12" width="172" height="28" rx="6" fill="#161b22" stroke="#30363d"/>
  <circle cx="394" cy="26" r="3.5" fill="#58a6ff">
    <animate attributeName="opacity" values="1;0.3;1" dur="1.4s" repeatCount="indefinite"/>
  </circle>
  <text class="val-mono" x="404" y="30">scan #143 · live</text>
  <path d="M536 24 l5 5 l5 -5" stroke="#7d8590" stroke-width="1.4" fill="none"/>

  <text class="muted" x="1042" y="31" font-size="12">tier-3 live</text>
  <circle cx="1118" cy="26" r="4" fill="#3fb950">
    <animate attributeName="opacity" values="1;0.4;1" dur="1.2s" repeatCount="indefinite"/>
  </circle>
  <text class="val" x="1130" y="30" font-size="12">scanning</text>

  <g transform="translate(1206,16)">
    <circle cx="12" cy="12" r="10" fill="none" stroke="#7d8590" stroke-width="1.4"/>
    <circle cx="12" cy="12" r="3" fill="none" stroke="#7d8590" stroke-width="1.4"/>
    <line x1="12" y1="2" x2="12" y2="5" stroke="#7d8590" stroke-width="1.4"/>
    <line x1="12" y1="19" x2="12" y2="22" stroke="#7d8590" stroke-width="1.4"/>
    <line x1="2" y1="12" x2="5" y2="12" stroke="#7d8590" stroke-width="1.4"/>
    <line x1="19" y1="12" x2="22" y2="12" stroke="#7d8590" stroke-width="1.4"/>
  </g>
  <circle cx="1252" cy="26" r="12" fill="#a371f7"/>
  <text x="1252" y="30" text-anchor="middle" fill="#0e1117" font-size="11" font-weight="700">SB</text>

  <!-- ============ Sidebar ============ -->
  <rect x="0" y="52" width="56" height="748" class="sidebar"/>
  <line class="divider" x1="56" y1="52" x2="56" y2="800"/>

  <!-- Dashboard (active, since scan view lives at /) -->
  <rect x="8" y="68" width="40" height="40" rx="8" fill="#1f2937" stroke="#30363d"/>
  <rect x="4" y="68" width="2" height="40" rx="1" fill="#58a6ff"/>
  <rect x="16" y="78" width="10" height="10" rx="2" fill="#58a6ff"/>
  <rect x="30" y="78" width="10" height="10" rx="2" fill="none" stroke="#58a6ff" stroke-width="1.5"/>
  <rect x="16" y="92" width="10" height="10" rx="2" fill="none" stroke="#58a6ff" stroke-width="1.5"/>
  <rect x="30" y="92" width="10" height="10" rx="2" fill="none" stroke="#58a6ff" stroke-width="1.5"/>

  <g transform="translate(8,116)">
    <circle cx="20" cy="20" r="11" fill="none" stroke="#7d8590" stroke-width="1.6"/>
    <line x1="20" y1="14" x2="20" y2="22" stroke="#7d8590" stroke-width="1.6" stroke-linecap="round"/>
    <circle cx="20" cy="26" r="1.5" fill="#7d8590"/>
  </g>
  <g transform="translate(8,164)">
    <path d="M14 14 L26 14 L26 22 L20 28 L14 22 Z" fill="none" stroke="#7d8590" stroke-width="1.6" stroke-linejoin="round"/>
    <circle cx="20" cy="19" r="2" fill="#7d8590"/>
  </g>
  <g transform="translate(8,212)">
    <circle cx="20" cy="20" r="10" fill="none" stroke="#7d8590" stroke-width="1.6"/>
    <path d="M20 14 L20 20 L25 23" stroke="#7d8590" stroke-width="1.6" fill="none" stroke-linecap="round"/>
  </g>
  <g transform="translate(8,260)">
    <circle cx="20" cy="20" r="3.5" fill="none" stroke="#7d8590" stroke-width="1.6"/>
    <circle cx="20" cy="20" r="9" fill="none" stroke="#7d8590" stroke-width="1.6" stroke-dasharray="3 2"/>
  </g>

  <!-- ============ Page title ============ -->
  <text class="h1" x="80" y="84">Scan running</text>
  <g transform="translate(228,68)">
    <rect width="92" height="22" rx="11" class="pill-blue"/>
    <circle cx="14" cy="11" r="4" fill="#58a6ff">
      <animate attributeName="r" values="3;5;3" dur="1.2s" repeatCount="indefinite"/>
    </circle>
    <text class="pill-blue-t" x="26" y="14" font-size="10.5">scan #143</text>
  </g>
  <text class="muted" x="80" y="106">Triggered manually · branch main · commit a8f3d7c</text>

  <!-- Cancel button -->
  <rect x="1140" y="68" width="114" height="36" rx="8" class="btn-danger"/>
  <rect x="1158" y="80" width="10" height="12" rx="1" fill="#ff7b72"/>
  <text class="btn-danger-t" x="1176" y="91">Cancel scan</text>

  <!-- ============ Hero: Progress strip ============ -->
  <rect x="80" y="124" width="836" height="166" rx="10" fill="url(#herofade)" stroke="#21262d"/>

  <!-- Status text -->
  <g transform="translate(104,148)">
    <circle cx="6" cy="6" r="6" fill="#58a6ff">
      <animate attributeName="opacity" values="1;0.25;1" dur="1.2s" repeatCount="indefinite"/>
    </circle>
    <text class="lbl" x="22" y="11" fill="#58a6ff">SCANNING</text>
  </g>

  <text class="h-num" x="104" y="198" font-size="42">1 247</text>
  <text class="muted" x="230" y="200" font-size="14">/ 1 942 files</text>
  <text class="muted" x="332" y="200" font-size="14">·</text>
  <text class="h-num" x="350" y="198" font-size="22" fill="#58a6ff">64<tspan font-size="14" fill="#7d8590">%</tspan></text>

  <!-- Right-side sub-stats -->
  <line class="hairline" x1="554" y1="146" x2="554" y2="218"/>
  <g transform="translate(580,156)">
    <text class="lbl" y="0">Chunks parsed</text>
    <text class="h-num" y="32" font-size="22">8 412</text>
  </g>
  <g transform="translate(708,156)">
    <text class="lbl" y="0">Findings so far</text>
    <text class="h-num" y="32" font-size="22" fill="#f85149">11</text>
    <text class="muted-mono" y="50" font-size="10.5">2 HIGH · 9 LOW</text>
  </g>

  <!-- progress bar -->
  <g transform="translate(104,228)">
    <rect width="788" height="10" rx="5" fill="#21262d"/>
    <rect width="504" height="10" rx="5" fill="url(#progress)"/>
    <!-- shimmer overlay -->
    <rect x="384" width="120" height="10" rx="5" fill="url(#shimmer)" opacity="0.6">
      <animate attributeName="x" values="0;668;0" dur="2.4s" repeatCount="indefinite"/>
    </rect>
    <!-- head dot -->
    <circle cx="504" cy="5" r="6" fill="#58a6ff" stroke="#0e1117" stroke-width="2"/>
  </g>

  <!-- progress meta -->
  <g transform="translate(104,256)" font-size="11.5">
    <text class="muted-mono">throughput</text>
    <text class="val-mono" x="76">142 files/s</text>
    <text class="muted-mono" x="180">·</text>
    <text class="muted-mono" x="196">elapsed</text>
    <text class="val-mono" x="248">00:08:47</text>
    <text class="muted-mono" x="324">·</text>
    <text class="muted-mono" x="340">tier-3 queue</text>
    <text class="val-mono" x="420">4</text>
    <text class="muted-mono" x="468">·</text>
    <text class="muted-mono" x="484">ETA</text>
    <text class="val-mono" x="516" fill="#3fb950">≈ 4m 53s</text>
  </g>

  <!-- ============ Detector pipeline (left, below hero) ============ -->
  <rect x="80" y="308" width="836" height="278" rx="10" class="panel"/>
  <text class="h2" x="104" y="334">Detector pipeline</text>
  <text class="muted" x="104" y="352" font-size="11.5">9 detectors · parallel where independent · sequential where they share an index</text>

  <line class="hairline" x1="104" y1="364" x2="892" y2="364"/>

  <!-- column headers -->
  <text class="lbl" x="104" y="382">Status</text>
  <text class="lbl" x="170" y="382">Detector</text>
  <text class="lbl" x="510" y="382">Progress</text>
  <text class="lbl" x="780" y="382">Hits</text>
  <text class="lbl" x="840" y="382">t / file</text>

  <!-- DONE: duplicate-types -->
  <g transform="translate(0,398)">
    <rect x="104" y="0" width="32" height="20" rx="10" class="pill-green"/>
    <text class="pill-green-t" x="113" y="14">DONE</text>
    <text class="val" x="170" y="14">duplicate-types</text>
    <text class="muted-mono" x="340" y="14" font-size="11">structural cross-package</text>
    <rect x="510" y="6" width="220" height="6" rx="3" fill="#21262d"/>
    <rect x="510" y="6" width="220" height="6" rx="3" fill="#3fb950"/>
    <text class="val-mono" x="780" y="14">4</text>
    <text class="val-mono" x="840" y="14">3.2ms</text>
  </g>

  <!-- DONE: dead-code -->
  <g transform="translate(0,432)">
    <rect x="104" y="0" width="32" height="20" rx="10" class="pill-green"/>
    <text class="pill-green-t" x="113" y="14">DONE</text>
    <text class="val" x="170" y="14">dead-code</text>
    <text class="muted-mono" x="340" y="14" font-size="11">unused exports + unreachable</text>
    <rect x="510" y="6" width="220" height="6" rx="3" fill="#21262d"/>
    <rect x="510" y="6" width="220" height="6" rx="3" fill="#3fb950"/>
    <text class="val-mono" x="780" y="14">2</text>
    <text class="val-mono" x="840" y="14">2.7ms</text>
  </g>

  <!-- RUNNING: race detector (highlighted) -->
  <rect x="96" y="458" width="804" height="34" rx="6" fill="#0f1f33" stroke="#1f3a5a"/>
  <g transform="translate(0,464)">
    <rect x="104" y="0" width="50" height="20" rx="10" class="pill-blue"/>
    <circle cx="115" cy="10" r="3" fill="#58a6ff">
      <animate attributeName="opacity" values="1;0.2;1" dur="1s" repeatCount="indefinite"/>
    </circle>
    <text class="pill-blue-t" x="124" y="14" font-size="10">LIVE</text>
    <text class="val" x="170" y="14" font-weight="600">race · read-modify-write</text>
    <text class="muted-mono" x="380" y="14" font-size="11">across await / Promise.all</text>
    <rect x="510" y="6" width="220" height="6" rx="3" fill="#21262d"/>
    <rect x="510" y="6" width="142" height="6" rx="3" fill="url(#progress)"/>
    <circle cx="652" cy="9" r="4" fill="#58a6ff" stroke="#0e1117" stroke-width="1.5"/>
    <text class="muted-mono" x="738" y="14" font-size="10.5">64%</text>
    <text class="val-mono" x="780" y="14" fill="#f85149">2</text>
    <text class="val-mono" x="840" y="14">8.1ms</text>
  </g>

  <!-- QUEUED: shared-column writers -->
  <g transform="translate(0,512)">
    <rect x="104" y="0" width="56" height="20" rx="10" class="pill-yellow"/>
    <text class="pill-yellow-t" x="112" y="14">QUEUED</text>
    <text class="val" x="170" y="14">shared-column writers</text>
    <text class="muted-mono" x="350" y="14" font-size="11">Prisma · Sequelize · TypeORM · Mongoose · Knex · Drizzle · raw SQL</text>
    <rect x="510" y="6" width="220" height="6" rx="3" fill="#21262d"/>
    <text class="muted-mono" x="780" y="14">—</text>
    <text class="muted-mono" x="840" y="14">—</text>
  </g>

  <!-- QUEUED: http-api-races -->
  <g transform="translate(0,544)">
    <rect x="104" y="0" width="56" height="20" rx="10" class="pill-yellow"/>
    <text class="pill-yellow-t" x="112" y="14">QUEUED</text>
    <text class="val" x="170" y="14">http-api-races</text>
    <text class="muted-mono" x="350" y="14" font-size="11">interleaved request handlers, emitter handlers</text>
    <rect x="510" y="6" width="220" height="6" rx="3" fill="#21262d"/>
    <text class="muted-mono" x="780" y="14">—</text>
    <text class="muted-mono" x="840" y="14">—</text>
  </g>

  <!-- ============ Live LLM verdict log (right) ============ -->
  <rect x="936" y="124" width="318" height="610" rx="10" class="panel"/>

  <!-- header -->
  <g transform="translate(956,150)">
    <path d="M0 8 L4 10 L6 14 L8 10 L12 8 L8 6 L6 2 L4 6 Z" fill="#a371f7"/>
  </g>
  <text class="h2" x="976" y="158">Tier-3 verdict stream</text>
  <rect x="1188" y="142" width="50" height="20" rx="10" class="pill-purple"/>
  <circle cx="1199" cy="152" r="3" fill="#a371f7">
    <animate attributeName="opacity" values="1;0.3;1" dur="1s" repeatCount="indefinite"/>
  </circle>
  <text class="pill-purple-t" x="1208" y="156" font-size="9.5">LIVE</text>

  <text class="muted-mono" x="956" y="176" font-size="11">Qwen2.5-Coder-14B · local · last 10</text>
  <line class="hairline" x1="956" y1="186" x2="1234" y2="186"/>

  <!-- verdict items -->
  <!-- 1 -->
  <g transform="translate(956,198)">
    <circle cx="6" cy="8" r="4" fill="#f85149"/>
    <text class="val-mono" x="18" y="11" font-size="11.5" font-weight="600">race · rmw</text>
    <rect x="206" y="0" width="40" height="16" rx="3" class="pill-high"/>
    <text class="pill-high-t" x="214" y="11" font-size="9">RACE</text>
    <text class="muted-mono" x="260" y="11" font-size="10">1.9s</text>
    <text class="pill-blue-t" x="18" y="26" fill="#79c0ff" font-size="10.5">doc-rev · documentMover.ts:142</text>
  </g>
  <line class="hairline" x1="956" y1="244" x2="1234" y2="244"/>

  <!-- 2 -->
  <g transform="translate(956,250)">
    <circle cx="6" cy="8" r="4" fill="#f85149"/>
    <text class="val-mono" x="18" y="11" font-size="11.5" font-weight="600">shared-column</text>
    <rect x="206" y="0" width="40" height="16" rx="3" class="pill-high"/>
    <text class="pill-high-t" x="214" y="11" font-size="9">RACE</text>
    <text class="muted-mono" x="260" y="11" font-size="10">2.4s</text>
    <text class="pill-blue-t" x="18" y="26" fill="#79c0ff" font-size="10.5">documents.revision · 3 writers</text>
  </g>
  <line class="hairline" x1="956" y1="296" x2="1234" y2="296"/>

  <!-- 3 -->
  <g transform="translate(956,302)">
    <circle cx="6" cy="8" r="4" fill="#3fb950"/>
    <text class="val-mono" x="18" y="11" font-size="11.5" font-weight="600">race · rmw</text>
    <rect x="206" y="0" width="40" height="16" rx="3" class="pill-green"/>
    <text class="pill-green-t" x="217" y="11" font-size="9">SAFE</text>
    <text class="muted-mono" x="260" y="11" font-size="10">1.6s</text>
    <text class="muted-mono" x="18" y="26" font-size="10.5" fill="#79c0ff">cache-key · CacheClient.ts:88</text>
  </g>
  <line class="hairline" x1="956" y1="348" x2="1234" y2="348"/>

  <!-- 4 -->
  <g transform="translate(956,354)">
    <circle cx="6" cy="8" r="4" fill="#3fb950"/>
    <text class="val-mono" x="18" y="11" font-size="11.5" font-weight="600">duplicate-types</text>
    <rect x="206" y="0" width="40" height="16" rx="3" class="pill-green"/>
    <text class="pill-green-t" x="217" y="11" font-size="9">SAFE</text>
    <text class="muted-mono" x="260" y="11" font-size="10">0.9s</text>
    <text class="muted-mono" x="18" y="26" font-size="10.5" fill="#79c0ff">UserDTO ≢ UserVM (different)</text>
  </g>
  <line class="hairline" x1="956" y1="400" x2="1234" y2="400"/>

  <!-- 5 -->
  <g transform="translate(956,406)">
    <circle cx="6" cy="8" r="4" fill="#f85149"/>
    <text class="val-mono" x="18" y="11" font-size="11.5" font-weight="600">http-api</text>
    <rect x="206" y="0" width="40" height="16" rx="3" class="pill-high"/>
    <text class="pill-high-t" x="214" y="11" font-size="9">RACE</text>
    <text class="muted-mono" x="260" y="11" font-size="10">2.1s</text>
    <text class="muted-mono" x="18" y="26" font-size="10.5" fill="#79c0ff">PATCH /docs/:id · view-count.ts</text>
  </g>
  <line class="hairline" x1="956" y1="452" x2="1234" y2="452"/>

  <!-- 6 -->
  <g transform="translate(956,458)">
    <circle cx="6" cy="8" r="4" fill="#d29922"/>
    <text class="val-mono" x="18" y="11" font-size="11.5" font-weight="600">race · rmw</text>
    <rect x="206" y="0" width="40" height="16" rx="3" class="pill-yellow"/>
    <text class="pill-yellow-t" x="208" y="11" font-size="9">UNSURE</text>
    <text class="muted-mono" x="260" y="11" font-size="10">1.7s</text>
    <text class="muted-mono" x="18" y="26" font-size="10.5" fill="#79c0ff">View.incrementCount() :44</text>
  </g>
  <line class="hairline" x1="956" y1="504" x2="1234" y2="504"/>

  <!-- 7 -->
  <g transform="translate(956,510)">
    <circle cx="6" cy="8" r="4" fill="#3fb950"/>
    <text class="val-mono" x="18" y="11" font-size="11.5" font-weight="600">dead-code</text>
    <rect x="206" y="0" width="40" height="16" rx="3" class="pill-green"/>
    <text class="pill-green-t" x="217" y="11" font-size="9">SAFE</text>
    <text class="muted-mono" x="260" y="11" font-size="10">0.7s</text>
    <text class="muted-mono" x="18" y="26" font-size="10.5" fill="#79c0ff">legacyMigrate() — re-exported</text>
  </g>
  <line class="hairline" x1="956" y1="556" x2="1234" y2="556"/>

  <!-- 8 -->
  <g transform="translate(956,562)">
    <circle cx="6" cy="8" r="4" fill="#3fb950"/>
    <text class="val-mono" x="18" y="11" font-size="11.5" font-weight="600">shared-column</text>
    <rect x="206" y="0" width="40" height="16" rx="3" class="pill-green"/>
    <text class="pill-green-t" x="217" y="11" font-size="9">SAFE</text>
    <text class="muted-mono" x="260" y="11" font-size="10">2.0s</text>
    <text class="muted-mono" x="18" y="26" font-size="10.5" fill="#79c0ff">users.lastSeenAt · single writer</text>
  </g>
  <line class="hairline" x1="956" y1="608" x2="1234" y2="608"/>

  <!-- 9 streaming - half-rendered -->
  <g transform="translate(956,614)">
    <circle cx="6" cy="8" r="4" fill="#58a6ff">
      <animate attributeName="opacity" values="1;0.3;1" dur="0.9s" repeatCount="indefinite"/>
    </circle>
    <text class="val-mono" x="18" y="11" font-size="11.5" font-weight="600">race · rmw</text>
    <rect x="206" y="0" width="46" height="16" rx="3" fill="#0f1f33" stroke="#1f3a5a"/>
    <text x="212" y="11" fill="#58a6ff" font-size="9" font-weight="700">THINK…</text>
    <text class="muted-mono" x="266" y="11" font-size="10">…</text>
    <text class="muted-mono" x="18" y="26" font-size="10.5" fill="#79c0ff">Star.reorder() :128 ▍</text>
  </g>
  <line class="hairline" x1="956" y1="660" x2="1234" y2="660"/>

  <!-- 10 -->
  <g transform="translate(956,666)">
    <circle cx="6" cy="8" r="4" fill="#7d8590"/>
    <text class="muted-mono" x="18" y="11" font-size="11.5">queued · Attachment.touch()</text>
    <text class="muted-mono" x="260" y="11" font-size="10">—</text>
  </g>

  <!-- footer stat -->
  <line class="hairline" x1="956" y1="700" x2="1234" y2="700"/>
  <g transform="translate(956,710)" font-size="11">
    <text class="muted-mono">avg latency</text>
    <text class="val-mono" x="76">1.71s</text>
    <text class="muted-mono" x="130">·</text>
    <text class="muted-mono" x="142">verdicts</text>
    <text class="val-mono" x="194">38 / 73</text>
  </g>

  <!-- ============ Bottom strip: ETA + cancel (already in header but adding bottom action bar) ============ -->
  <rect x="80" y="606" width="836" height="128" rx="10" class="panel"/>
  <text class="h2" x="104" y="632">Live timing</text>
  <line class="hairline" x1="104" y1="644" x2="892" y2="644"/>

  <!-- timing columns -->
  <g transform="translate(104,660)">
    <text class="lbl" y="0">Elapsed</text>
    <text class="h-num" y="32" font-size="22">00:08:47</text>
  </g>
  <line class="hairline" x1="252" y1="654" x2="252" y2="722"/>

  <g transform="translate(276,660)">
    <text class="lbl" y="0">ETA</text>
    <text class="h-num" y="32" font-size="22" fill="#3fb950">≈ 4m 53s</text>
    <text class="muted-mono" y="50" font-size="10.5">based on current throughput</text>
  </g>
  <line class="hairline" x1="476" y1="654" x2="476" y2="722"/>

  <g transform="translate(500,660)">
    <text class="lbl" y="0">Tier-3 budget</text>
    <text class="h-num" y="32" font-size="22">38 / 73</text>
    <rect y="40" width="160" height="6" rx="3" fill="#21262d"/>
    <rect y="40" width="84" height="6" rx="3" fill="#a371f7"/>
  </g>
  <line class="hairline" x1="700" y1="654" x2="700" y2="722"/>

  <g transform="translate(724,660)">
    <text class="lbl" y="0">Files / sec</text>
    <text class="h-num" y="32" font-size="22">142</text>
    <!-- mini sparkline -->
    <g transform="translate(0,40)">
      <polyline points="0,8 12,5 24,7 36,3 48,6 60,2 72,4 84,1" stroke="#58a6ff" stroke-width="1.6" fill="none" stroke-linecap="round" stroke-linejoin="round"/>
    </g>
  </g>

  <!-- footer action right-aligned -->
  <rect x="752" y="706" width="148" height="24" rx="6" class="btn-ghost"/>
  <rect x="764" y="714" width="3" height="8" fill="#c9d1d9"/>
  <rect x="770" y="714" width="3" height="8" fill="#c9d1d9"/>
  <text class="btn-ghost-t" x="780" y="722" font-size="11.5">Pause after detector</text>

  <!-- ============ Bottom toast: cancel area emphasised ============ -->
  <rect x="80" y="752" width="1174" height="36" rx="8" fill="#11151c" stroke="#21262d"/>
  <circle cx="100" cy="770" r="4" fill="#58a6ff">
    <animate attributeName="opacity" values="1;0.3;1" dur="1.2s" repeatCount="indefinite"/>
  </circle>
  <text class="val-mono" x="116" y="774" font-size="11.5">Streaming verdicts from llama.cpp · port 7100 · ~512 tok/s</text>
  <text class="muted-mono" x="690" y="774" font-size="11">Press <tspan fill="#c9d1d9">⌘.</tspan> to cancel · scan is resumable from last detector boundary</text>
  <text class="link" x="1234" y="774" text-anchor="end" font-size="12">View raw log →</text>
</svg>
