<?xml version="1.0" encoding="UTF-8"?>
<svg xmlns="http://www.w3.org/2000/svg" width="1280" height="800" viewBox="0 0 1280 800" font-family="ui-sans-serif, -apple-system, 'Segoe UI', Roboto, 'Helvetica Neue', Inter, sans-serif">
  <defs>
    <style>
      .bg        { fill: #0e1117; }
      .sidebar   { fill: #0a0d12; }
      .panel     { fill: #161b22; stroke: #21262d; stroke-width: 1; }
      .panel-soft{ fill: #11151c; stroke: #21262d; stroke-width: 1; }
      .divider   { stroke: #21262d; stroke-width: 1; }
      .grid      { stroke: #21262d; stroke-width: 1; fill: none; }
      .hairline  { stroke: #1a1f27; stroke-width: 1; }

      .h1        { fill: #f0f6fc; font-weight: 600; font-size: 18px; }
      .h2        { fill: #e6edf3; font-weight: 600; font-size: 14px; }
      .h-num     { fill: #f0f6fc; font-weight: 600; font-family: ui-monospace, 'SF Mono', Menlo, monospace; }
      .val       { fill: #e6edf3; font-size: 13px; }
      .val-mono  { fill: #c9d1d9; font-size: 12px; font-family: ui-monospace, 'SF Mono', Menlo, monospace; }
      .lbl       { fill: #6e7681; font-size: 10.5px; font-weight: 600; letter-spacing: 0.07em; text-transform: uppercase; }
      .muted     { fill: #7d8590; font-size: 12px; }
      .muted-mono{ fill: #7d8590; font-size: 11.5px; font-family: ui-monospace, 'SF Mono', Menlo, monospace; }
      .link      { fill: #58a6ff; font-size: 12px; }

      .high      { fill: #f85149; }
      .med       { fill: #d29922; }
      .low       { fill: #3fb950; }
      .blue      { fill: #58a6ff; }
      .purple    { fill: #a371f7; }

      .pill-high { fill: #2a0e10; stroke: #6e1f24; }
      .pill-high-t{ fill: #f85149; font-size: 9.5px; font-weight: 700; letter-spacing: 0.05em; }
      .pill-med  { fill: #261b07; stroke: #5c4416; }
      .pill-med-t{ fill: #d29922; font-size: 9.5px; font-weight: 700; letter-spacing: 0.05em; }
      .pill-low  { fill: #0d2014; stroke: #1f4a2a; }
      .pill-low-t{ fill: #3fb950; font-size: 9.5px; font-weight: 700; letter-spacing: 0.05em; }
      .pill-blue { fill: #0f1f33; stroke: #1f3a5a; }
      .pill-blue-t{ fill: #79c0ff; font-size: 9.5px; font-weight: 600; letter-spacing: 0.02em; font-family: ui-monospace, monospace; }
      .pill-purple{ fill: #1c0f2a; stroke: #3a2256; }
      .pill-purple-t{ fill: #d2a8ff; font-size: 9.5px; font-weight: 600; letter-spacing: 0.02em; }
      .pill-ghost{ fill: #1c2128; stroke: #30363d; }
      .pill-ghost-t{ fill: #c9d1d9; font-size: 10px; }

      .btn-primary { fill: #238636; stroke: #2ea043; }
      .btn-primary-t{ fill: #ffffff; font-size: 12.5px; font-weight: 600; }
      .btn-ghost  { fill: #1c2128; stroke: #30363d; }
      .btn-ghost-t{ fill: #c9d1d9; font-size: 12px; }

      .row-hover { fill: #181d24; }
      .gutter    { fill: #6e7681; font-size: 11px; font-family: ui-monospace, monospace; }
    </style>
    <linearGradient id="herofade" x1="0" x2="0" y1="0" y2="1">
      <stop offset="0%" stop-color="#161b22"/>
      <stop offset="100%" stop-color="#11151c"/>
    </linearGradient>
    <linearGradient id="trendfill" x1="0" x2="0" y1="0" y2="1">
      <stop offset="0%" stop-color="#f85149" stop-opacity="0.35"/>
      <stop offset="100%" stop-color="#f85149" stop-opacity="0"/>
    </linearGradient>
    <linearGradient id="fab" x1="0" x2="0" y1="0" y2="1">
      <stop offset="0%" stop-color="#3fb950"/>
      <stop offset="100%" stop-color="#1f7a36"/>
    </linearGradient>
  </defs>

  <rect class="bg" width="1280" height="800"/>

  <!-- ============ Top Bar ============ -->
  <rect x="0" y="0" width="1280" height="52" fill="#0a0d12"/>
  <line class="divider" x1="0" y1="52" x2="1280" y2="52"/>

  <!-- Logo -->
  <g transform="translate(20,14)">
    <rect width="24" height="24" rx="6" fill="#1f6feb"/>
    <path d="M7 12 L11 16 L17 8" stroke="#ffffff" stroke-width="2.2" fill="none" stroke-linecap="round" stroke-linejoin="round"/>
  </g>
  <text class="h1" x="54" y="33" font-size="15">RotHunter</text>

  <!-- Workspace selector -->
  <rect x="148" y="12" width="218" height="28" rx="6" fill="#161b22" stroke="#30363d"/>
  <circle cx="164" cy="26" r="6" fill="#a371f7"/>
  <text class="val" x="178" y="30" font-size="12.5">outline / outline</text>
  <text class="muted-mono" x="284" y="30">/workspace</text>
  <path d="M352 24 l5 5 l5 -5" stroke="#7d8590" stroke-width="1.4" fill="none" stroke-linecap="round"/>

  <!-- Scan history dropdown -->
  <rect x="378" y="12" width="172" height="28" rx="6" fill="#161b22" stroke="#30363d"/>
  <circle cx="394" cy="26" r="3" fill="#3fb950"/>
  <text class="val-mono" x="404" y="30">scan #142 · 4m ago</text>
  <path d="M536 24 l5 5 l5 -5" stroke="#7d8590" stroke-width="1.4" fill="none" stroke-linecap="round"/>

  <!-- Right cluster -->
  <text class="muted" x="1042" y="31" font-size="12">tier-3 73%</text>
  <circle cx="1118" cy="26" r="4" fill="#3fb950"/>
  <text class="val" x="1130" y="30" font-size="12">watching</text>
  <!-- search -->
  <rect x="844" y="12" width="180" height="28" rx="6" fill="#0d1117" stroke="#30363d"/>
  <circle cx="860" cy="26" r="5" fill="none" stroke="#7d8590" stroke-width="1.4"/>
  <line x1="864" y1="30" x2="868" y2="34" stroke="#7d8590" stroke-width="1.4"/>
  <text class="muted-mono" x="876" y="30">Search findings…</text>
  <rect x="990" y="18" width="28" height="16" rx="4" fill="#161b22" stroke="#30363d"/>
  <text class="muted-mono" x="996" y="30" font-size="10">⌘K</text>
  <!-- settings icon -->
  <g transform="translate(1206,16)">
    <circle cx="12" cy="12" r="10" fill="none" stroke="#7d8590" stroke-width="1.4"/>
    <circle cx="12" cy="12" r="3" fill="none" stroke="#7d8590" stroke-width="1.4"/>
    <line x1="12" y1="2" x2="12" y2="5" stroke="#7d8590" stroke-width="1.4"/>
    <line x1="12" y1="19" x2="12" y2="22" stroke="#7d8590" stroke-width="1.4"/>
    <line x1="2" y1="12" x2="5" y2="12" stroke="#7d8590" stroke-width="1.4"/>
    <line x1="19" y1="12" x2="22" y2="12" stroke="#7d8590" stroke-width="1.4"/>
  </g>
  <!-- avatar -->
  <circle cx="1252" cy="26" r="12" fill="#a371f7"/>
  <text x="1252" y="30" text-anchor="middle" fill="#0e1117" font-size="11" font-weight="700">SB</text>

  <!-- ============ Left Sidebar (icon-only) ============ -->
  <rect x="0" y="52" width="56" height="748" class="sidebar"/>
  <line class="divider" x1="56" y1="52" x2="56" y2="800"/>

  <!-- nav items -->
  <!-- Dashboard (active) -->
  <rect x="8" y="68" width="40" height="40" rx="8" fill="#1f2937" stroke="#30363d"/>
  <rect x="16" y="78" width="10" height="10" rx="2" fill="#58a6ff"/>
  <rect x="30" y="78" width="10" height="10" rx="2" fill="none" stroke="#58a6ff" stroke-width="1.5"/>
  <rect x="16" y="92" width="10" height="10" rx="2" fill="none" stroke="#58a6ff" stroke-width="1.5"/>
  <rect x="30" y="92" width="10" height="10" rx="2" fill="none" stroke="#58a6ff" stroke-width="1.5"/>
  <rect x="4" y="68" width="2" height="40" rx="1" fill="#58a6ff"/>

  <!-- Findings -->
  <g transform="translate(8,116)">
    <rect width="40" height="40" rx="8" fill="transparent"/>
    <circle cx="20" cy="20" r="11" fill="none" stroke="#7d8590" stroke-width="1.6"/>
    <line x1="20" y1="14" x2="20" y2="22" stroke="#7d8590" stroke-width="1.6" stroke-linecap="round"/>
    <circle cx="20" cy="26" r="1.4" fill="#7d8590"/>
    <circle cx="36" cy="8" r="7" fill="#f85149"/>
    <text x="36" y="11" text-anchor="middle" fill="#ffffff" font-size="9" font-weight="700">17</text>
  </g>

  <!-- Detectors -->
  <g transform="translate(8,164)">
    <rect width="40" height="40" rx="8" fill="transparent"/>
    <path d="M14 14 L26 14 L26 22 L20 28 L14 22 Z" fill="none" stroke="#7d8590" stroke-width="1.6" stroke-linejoin="round"/>
    <circle cx="20" cy="19" r="2" fill="#7d8590"/>
  </g>

  <!-- History -->
  <g transform="translate(8,212)">
    <rect width="40" height="40" rx="8" fill="transparent"/>
    <circle cx="20" cy="20" r="10" fill="none" stroke="#7d8590" stroke-width="1.6"/>
    <path d="M20 14 L20 20 L25 23" stroke="#7d8590" stroke-width="1.6" fill="none" stroke-linecap="round"/>
  </g>

  <!-- Settings -->
  <g transform="translate(8,260)">
    <rect width="40" height="40" rx="8" fill="transparent"/>
    <circle cx="20" cy="20" r="3.5" fill="none" stroke="#7d8590" stroke-width="1.6"/>
    <circle cx="20" cy="20" r="9" fill="none" stroke="#7d8590" stroke-width="1.6" stroke-dasharray="3 2"/>
  </g>

  <!-- bottom item: docs -->
  <g transform="translate(8,740)">
    <rect width="40" height="40" rx="8" fill="transparent"/>
    <rect x="13" y="12" width="14" height="16" rx="2" fill="none" stroke="#7d8590" stroke-width="1.6"/>
    <line x1="16" y1="17" x2="24" y2="17" stroke="#7d8590" stroke-width="1.4"/>
    <line x1="16" y1="21" x2="24" y2="21" stroke="#7d8590" stroke-width="1.4"/>
    <line x1="16" y1="25" x2="21" y2="25" stroke="#7d8590" stroke-width="1.4"/>
  </g>

  <!-- ============ Main content ============ -->

  <!-- Page title row -->
  <text class="h1" x="80" y="84" font-size="22">Overview</text>
  <text class="muted" x="80" y="106">Code-hygiene posture for outline/outline · last scan 4 minutes ago</text>

  <!-- Run scan CTA -->
  <rect x="1108" y="68" width="146" height="36" rx="8" class="btn-primary"/>
  <polygon points="1126,80 1126,92 1136,86" fill="#ffffff"/>
  <text class="btn-primary-t" x="1144" y="91">Run scan</text>

  <!-- Filter pill row -->
  <rect x="996" y="72" width="104" height="28" rx="6" class="btn-ghost"/>
  <text class="btn-ghost-t" x="1010" y="90">main · HEAD</text>
  <path d="M1086 84 l4 4 l4 -4" stroke="#7d8590" stroke-width="1.4" fill="none"/>

  <!-- ===== Hero strip with counts ===== -->
  <rect x="80" y="124" width="1174" height="118" rx="10" fill="url(#herofade)" stroke="#21262d"/>

  <!-- counts -->
  <g transform="translate(104,144)">
    <text class="lbl" y="0">Total findings</text>
    <text class="h-num" y="42" font-size="36">99</text>
    <text class="muted" x="62" y="42" font-size="12">↑ 6 from last scan</text>
  </g>
  <line class="hairline" x1="284" y1="144" x2="284" y2="226"/>

  <g transform="translate(308,144)">
    <text class="lbl" y="0">High</text>
    <text class="high" y="42" font-size="36" font-weight="600" font-family="ui-monospace, monospace">17</text>
    <g transform="translate(60,28)">
      <rect width="56" height="20" rx="10" class="pill-high"/>
      <text class="pill-high-t" x="10" y="14">+ 6 NEW</text>
    </g>
  </g>
  <line class="hairline" x1="448" y1="144" x2="448" y2="226"/>

  <g transform="translate(472,144)">
    <text class="lbl" y="0">Medium</text>
    <text class="med" y="42" font-size="36" font-weight="600" font-family="ui-monospace, monospace">0</text>
  </g>
  <line class="hairline" x1="588" y1="144" x2="588" y2="226"/>

  <g transform="translate(612,144)">
    <text class="lbl" y="0">Low</text>
    <text class="low" y="42" font-size="36" font-weight="600" font-family="ui-monospace, monospace">82</text>
  </g>
  <line class="hairline" x1="724" y1="144" x2="724" y2="226"/>

  <g transform="translate(748,144)">
    <text class="lbl" y="0">Tier-3 coverage</text>
    <text class="h-num" y="42" font-size="36">73<tspan font-size="22" fill="#7d8590">%</tspan></text>
    <text class="muted-mono" y="64">Qwen2.5-Coder-14B · local</text>
  </g>
  <line class="hairline" x1="936" y1="144" x2="936" y2="226"/>

  <!-- Trend sparkline -->
  <g transform="translate(960,150)">
    <text class="lbl" y="0">High findings · last 7 scans</text>
    <!-- area sparkline -->
    <g transform="translate(0,18)">
      <path d="M0 44 L40 38 L80 32 L120 28 L160 18 L200 12 L240 6 L240 56 L0 56 Z" fill="url(#trendfill)"/>
      <path d="M0 44 L40 38 L80 32 L120 28 L160 18 L200 12 L240 6" stroke="#f85149" stroke-width="1.8" fill="none" stroke-linecap="round" stroke-linejoin="round"/>
      <circle cx="240" cy="6" r="3.5" fill="#f85149" stroke="#161b22" stroke-width="2"/>
    </g>
    <text class="muted-mono" y="80" font-size="10">May 11</text>
    <text class="muted-mono" x="216" y="80" font-size="10">today</text>
  </g>

  <!-- ===== Detector breakdown + heatmap ===== -->
  <!-- Detector breakdown table -->
  <rect x="80" y="260" width="652" height="232" rx="10" class="panel"/>
  <text class="h2" x="100" y="288">Detectors</text>
  <text class="muted" x="100" y="306" font-size="11.5">9 detectors enabled · 3 fired this scan</text>
  <text class="link" x="690" y="288" text-anchor="end">View all</text>
  <line class="hairline" x1="100" y1="318" x2="712" y2="318"/>

  <!-- header row -->
  <text class="lbl" x="100" y="334">Detector</text>
  <text class="lbl" x="380" y="334">High</text>
  <text class="lbl" x="440" y="334">Low</text>
  <text class="lbl" x="510" y="334">Distribution</text>

  <!-- rows -->
  <g transform="translate(100,346)">
    <line class="hairline" x1="0" y1="0" x2="612" y2="0"/>
    <text class="val" y="22" font-size="13" fill="#e6edf3">race · read-modify-write</text>
    <text class="muted-mono" y="40">across await / Promise.all</text>
    <text class="high" x="280" y="28" font-size="14" font-family="ui-monospace, monospace">9</text>
    <text class="val-mono" x="340" y="28">12</text>
    <!-- bar -->
    <rect x="410" y="20" width="180" height="6" rx="3" fill="#21262d"/>
    <rect x="410" y="20" width="120" height="6" rx="3" fill="#f85149"/>
    <rect x="530" y="20" width="60" height="6" rx="3" fill="#3fb950"/>
  </g>

  <g transform="translate(100,398)">
    <line class="hairline" x1="0" y1="0" x2="612" y2="0"/>
    <text class="val" y="22" font-size="13" fill="#e6edf3">shared-column writers</text>
    <text class="muted-mono" y="40">Prisma · documents.revision</text>
    <text class="high" x="280" y="28" font-size="14" font-family="ui-monospace, monospace">7</text>
    <text class="val-mono" x="340" y="28">38</text>
    <rect x="410" y="20" width="180" height="6" rx="3" fill="#21262d"/>
    <rect x="410" y="20" width="90" height="6" rx="3" fill="#f85149"/>
    <rect x="500" y="20" width="90" height="6" rx="3" fill="#3fb950"/>
  </g>

  <g transform="translate(100,450)">
    <line class="hairline" x1="0" y1="0" x2="612" y2="0"/>
    <text class="val" y="22" font-size="13" fill="#e6edf3">duplicate types</text>
    <text class="muted-mono" y="40">structural · cross-package</text>
    <text class="high" x="280" y="28" font-size="14" font-family="ui-monospace, monospace">1</text>
    <text class="val-mono" x="340" y="28">32</text>
    <rect x="410" y="20" width="180" height="6" rx="3" fill="#21262d"/>
    <rect x="410" y="20" width="20" height="6" rx="3" fill="#f85149"/>
    <rect x="430" y="20" width="160" height="6" rx="3" fill="#3fb950"/>
  </g>

  <!-- Repo heatmap card -->
  <rect x="748" y="260" width="506" height="232" rx="10" class="panel"/>
  <text class="h2" x="768" y="288">Hotspots</text>
  <text class="muted" x="768" y="306" font-size="11.5">High findings by package · top 6</text>
  <text class="link" x="1234" y="288" text-anchor="end">Open graph</text>
  <line class="hairline" x1="768" y1="318" x2="1234" y2="318"/>

  <!-- horizontal bars -->
  <g transform="translate(768,332)" font-family="ui-monospace, monospace">
    <text class="val-mono" y="14">server/commands</text>
    <rect x="190" y="4" width="240" height="14" rx="3" fill="#21262d"/>
    <rect x="190" y="4" width="220" height="14" rx="3" fill="#f85149" opacity="0.85"/>
    <text class="val-mono" x="436" y="14">6</text>

    <text class="val-mono" y="38">server/models</text>
    <rect x="190" y="28" width="240" height="14" rx="3" fill="#21262d"/>
    <rect x="190" y="28" width="150" height="14" rx="3" fill="#f85149" opacity="0.75"/>
    <text class="val-mono" x="436" y="38">4</text>

    <text class="val-mono" y="62">server/queues</text>
    <rect x="190" y="52" width="240" height="14" rx="3" fill="#21262d"/>
    <rect x="190" y="52" width="110" height="14" rx="3" fill="#f85149" opacity="0.65"/>
    <text class="val-mono" x="436" y="62">3</text>

    <text class="val-mono" y="86">app/scenes</text>
    <rect x="190" y="76" width="240" height="14" rx="3" fill="#21262d"/>
    <rect x="190" y="76" width="80" height="14" rx="3" fill="#d29922" opacity="0.7"/>
    <text class="val-mono" x="436" y="86">2</text>

    <text class="val-mono" y="110">shared/utils</text>
    <rect x="190" y="100" width="240" height="14" rx="3" fill="#21262d"/>
    <rect x="190" y="100" width="50" height="14" rx="3" fill="#d29922" opacity="0.6"/>
    <text class="val-mono" x="436" y="110">1</text>

    <text class="val-mono" y="134">app/editor</text>
    <rect x="190" y="124" width="240" height="14" rx="3" fill="#21262d"/>
    <rect x="190" y="124" width="35" height="14" rx="3" fill="#3fb950" opacity="0.55"/>
    <text class="val-mono" x="436" y="134">1</text>
  </g>

  <!-- ===== HIGH findings table ===== -->
  <rect x="80" y="510" width="1174" height="266" rx="10" class="panel"/>
  <text class="h2" x="100" y="538">High-severity findings</text>
  <rect x="248" y="524" width="28" height="20" rx="10" fill="#2a0e10" stroke="#6e1f24"/>
  <text x="262" y="538" text-anchor="middle" fill="#f85149" font-size="11" font-weight="700" font-family="ui-monospace, monospace">17</text>
  <text class="muted" x="290" y="538" font-size="11.5">grouped by cluster</text>

  <!-- right-side controls -->
  <rect x="1014" y="522" width="86" height="26" rx="6" class="btn-ghost"/>
  <text class="btn-ghost-t" x="1024" y="539" font-size="11">Group: cluster</text>
  <rect x="1108" y="522" width="80" height="26" rx="6" class="btn-ghost"/>
  <text class="btn-ghost-t" x="1118" y="539" font-size="11">Export CSV</text>
  <rect x="1196" y="522" width="44" height="26" rx="6" class="btn-ghost"/>
  <circle cx="1208" cy="535" r="1.6" fill="#c9d1d9"/>
  <circle cx="1216" cy="535" r="1.6" fill="#c9d1d9"/>
  <circle cx="1224" cy="535" r="1.6" fill="#c9d1d9"/>

  <line class="hairline" x1="100" y1="556" x2="1234" y2="556"/>

  <!-- table header -->
  <text class="lbl" x="100" y="574">Severity</text>
  <text class="lbl" x="180" y="574">Detector</text>
  <text class="lbl" x="380" y="574">Cluster</text>
  <text class="lbl" x="552" y="574">Location</text>
  <text class="lbl" x="940" y="574">Seen</text>
  <text class="lbl" x="1018" y="574">Tier-3</text>
  <text class="lbl" x="1110" y="574">Confidence</text>
  <line class="hairline" x1="100" y1="584" x2="1234" y2="584"/>

  <!-- Row 1 - expanded -->
  <rect x="100" y="588" width="1134" height="48" fill="#181d24" rx="6"/>
  <g transform="translate(0,592)">
    <rect x="100" y="14" width="46" height="20" rx="4" class="pill-high"/>
    <text class="pill-high-t" x="111" y="28">HIGH</text>
    <text class="val" x="180" y="28" font-size="13">race · read-modify-write</text>
    <rect x="380" y="14" width="92" height="20" rx="4" class="pill-blue"/>
    <text class="pill-blue-t" x="390" y="28">doc-rev</text>
    <text class="val-mono" x="552" y="28">server/commands/documentMover.ts</text>
    <text class="muted-mono" x="780" y="28">:142–148</text>
    <rect x="940" y="14" width="44" height="20" rx="10" class="pill-ghost"/>
    <text class="pill-ghost-t" x="950" y="28">×3</text>
    <circle cx="1028" cy="24" r="4" fill="#3fb950"/>
    <text class="val-mono" x="1040" y="28">race</text>
    <rect x="1110" y="20" width="80" height="6" rx="3" fill="#21262d"/>
    <rect x="1110" y="20" width="68" height="6" rx="3" fill="#3fb950"/>
    <text class="val-mono" x="1196" y="28">0.85</text>
  </g>
  <!-- expand caret -->
  <path d="M218 624 l5 5 l5 -5" stroke="#58a6ff" stroke-width="1.6" fill="none"/>

  <!-- inline expanded detail (snippet) -->
  <rect x="116" y="644" width="1118" height="56" rx="6" fill="#0d1117" stroke="#21262d"/>
  <g font-family="ui-monospace, 'SF Mono', monospace" font-size="11.5">
    <text class="gutter" x="132" y="664">142</text>
    <text x="160" y="664" fill="#c9d1d9"><tspan fill="#ff7b72">const</tspan> doc = <tspan fill="#ff7b72">await</tspan> Document.findByPk(documentId);</text>
    <text class="gutter" x="132" y="680">143</text>
    <text x="160" y="680" fill="#c9d1d9">doc.revision += <tspan fill="#79c0ff">1</tspan>;</text>
    <text class="gutter" x="132" y="696">144</text>
    <text x="160" y="696" fill="#c9d1d9"><tspan fill="#ff7b72">await</tspan> doc.save();   <tspan fill="#6e7681">// concurrent caller may have advanced revision</tspan></text>
  </g>

  <!-- Row 2 -->
  <g transform="translate(0,710)">
    <rect x="100" y="0" width="1134" height="32" fill="transparent"/>
    <rect x="100" y="6" width="46" height="20" rx="4" class="pill-high"/>
    <text class="pill-high-t" x="111" y="20">HIGH</text>
    <text class="val" x="180" y="20" font-size="13">shared-column writers</text>
    <rect x="380" y="6" width="124" height="20" rx="4" class="pill-blue"/>
    <text class="pill-blue-t" x="390" y="20">documents.revision</text>
    <text class="val-mono" x="552" y="20">server/commands/documentPermanentDeleter.ts</text>
    <rect x="940" y="6" width="44" height="20" rx="10" class="pill-ghost"/>
    <text class="pill-ghost-t" x="950" y="20">×3</text>
    <circle cx="1028" cy="16" r="4" fill="#3fb950"/>
    <text class="val-mono" x="1040" y="20">race</text>
    <rect x="1110" y="12" width="80" height="6" rx="3" fill="#21262d"/>
    <rect x="1110" y="12" width="60" height="6" rx="3" fill="#3fb950"/>
    <text class="val-mono" x="1196" y="20">0.78</text>
  </g>
  <line class="hairline" x1="100" y1="742" x2="1234" y2="742"/>

  <!-- Row 3 -->
  <g transform="translate(0,748)">
    <rect x="100" y="6" width="46" height="20" rx="4" class="pill-high"/>
    <text class="pill-high-t" x="111" y="20">HIGH</text>
    <text class="val" x="180" y="20" font-size="13">race · read-modify-write</text>
    <rect x="380" y="6" width="76" height="20" rx="4" class="pill-blue"/>
    <text class="pill-blue-t" x="390" y="20">view-count</text>
    <text class="val-mono" x="552" y="20">server/models/View.ts</text>
    <rect x="940" y="6" width="44" height="20" rx="10" class="pill-ghost"/>
    <text class="pill-ghost-t" x="950" y="20">×1</text>
    <circle cx="1028" cy="16" r="4" fill="#d29922"/>
    <text class="val-mono" x="1040" y="20">unsure</text>
    <rect x="1110" y="12" width="80" height="6" rx="3" fill="#21262d"/>
    <rect x="1110" y="12" width="38" height="6" rx="3" fill="#d29922"/>
    <text class="val-mono" x="1196" y="20">0.52</text>
  </g>

  <!-- Floating FAB -->
  <g transform="translate(1196,732)">
    <circle cx="28" cy="28" r="28" fill="url(#fab)"/>
    <circle cx="28" cy="28" r="28" fill="none" stroke="#3fb950" stroke-opacity="0.4" stroke-width="1"/>
    <polygon points="22,18 22,38 40,28" fill="#0e1117"/>
  </g>
</svg>
